<?xml version="1.0" encoding="UTF-8" standalone="no"?>
<!-- Created with Inkscape (http://www.inkscape.org/) -->

<svg
   version="1.1"
   id="svg870"
   xml:space="preserve"
   width="881.72198"
   height="332.64182"
   viewBox="0 0 881.72199 332.64182"
   sodipodi:docname="classes_in_a_nutshell.svg"
   inkscape:version="1.1.2 (0a00cf5339, 2022-02-04)"
   xmlns:inkscape="http://www.inkscape.org/namespaces/inkscape"
   xmlns:sodipodi="http://sodipodi.sourceforge.net/DTD/sodipodi-0.dtd"
   xmlns="http://www.w3.org/2000/svg"
   xmlns:svg="http://www.w3.org/2000/svg"><defs
     id="defs874"><clipPath
       clipPathUnits="userSpaceOnUse"
       id="clipPath884"><path
         d="M 0,0.028 H 793.672 V 446.456 H 0 Z"
         clip-rule="evenodd"
         id="path882" /></clipPath></defs><sodipodi:namedview
     id="namedview872"
     pagecolor="#ffffff"
     bordercolor="#666666"
     borderopacity="1.0"
     inkscape:pageshadow="2"
     inkscape:pageopacity="0.0"
     inkscape:pagecheckerboard="0"
     showgrid="false"
     fit-margin-top="0"
     fit-margin-left="0"
     fit-margin-right="0"
     fit-margin-bottom="0"
     inkscape:zoom="0.95627978"
     inkscape:cx="437.11057"
     inkscape:cy="206.52952"
     inkscape:window-width="1850"
     inkscape:window-height="1016"
     inkscape:window-x="0"
     inkscape:window-y="0"
     inkscape:window-maximized="1"
     inkscape:current-layer="g876" /><g
     id="g876"
     inkscape:groupmode="layer"
     inkscape:label="classes_in_a_nutshell"
     transform="matrix(1.3333333,0,0,-1.3333333,-91.949698,504.50104)"><g
       id="g878"><g
         id="g880"
         clip-path="url(#clipPath884)"><g
           id="g888" /><g
           id="g890" /><g
           id="g892"><path
             d="m 315.128,342.906 h 0.028 c -2.126,0 -4.195,-0.567 -6.01,-1.615 -1.842,-1.049 -3.344,-2.552 -4.393,-4.394 -1.049,-1.814 -1.616,-3.884 -1.616,-6.01 v -47.99 -0.028 c 0,-2.098 0.567,-4.167 1.616,-5.982 1.049,-1.842 2.551,-3.344 4.393,-4.393 1.815,-1.049 3.884,-1.616 6.01,-1.616 h 137.99 0.029 c 2.097,0 4.167,0.567 5.981,1.616 1.842,1.049 3.345,2.551 4.394,4.393 1.048,1.815 1.615,3.884 1.615,5.982 v 48.047 -0.029 0 c 0,2.126 -0.567,4.196 -1.615,6.01 -1.049,1.842 -2.552,3.345 -4.394,4.394 -1.814,1.048 -3.884,1.615 -5.981,1.615 z"
             style="fill:none;stroke:#3465a4;stroke-width:0.75;stroke-linecap:butt;stroke-linejoin:round;stroke-miterlimit:10;stroke-dasharray:none;stroke-opacity:1"
             id="path894" /></g><g
           id="g896"><text
             transform="matrix(1,0,0,-1,367.002,302.059)"
             style="font-variant:normal;font-weight:normal;font-size:14.003px;font-family:'Liberation Sans';-inkscape-font-specification:LiberationSans;writing-mode:lr-tb;fill:#000000;fill-opacity:1;fill-rule:nonzero;stroke:none"
             id="text900"><tspan
               x="0 10.894334 18.680002 26.46567"
               y="0"
               sodipodi:role="line"
               id="tspan898">Gene</tspan></text></g><g
           id="g902"><path
             d="m 147.883,212.484 h 0.029 c -2.126,0 -4.195,-0.567 -6.01,-1.615 -1.842,-1.049 -3.345,-2.552 -4.393,-4.394 -1.049,-1.814 -1.616,-3.884 -1.616,-6.01 v -47.99 -0.028 c 0,-2.098 0.567,-4.167 1.616,-5.982 1.048,-1.842 2.551,-3.344 4.393,-4.393 1.815,-1.049 3.884,-1.616 6.01,-1.616 h 137.99 0.029 c 2.097,0 4.167,0.567 5.981,1.616 1.842,1.049 3.345,2.551 4.394,4.393 1.048,1.815 1.615,3.884 1.615,5.982 v 48.047 -0.029 0 c 0,2.126 -0.567,4.196 -1.615,6.01 -1.049,1.842 -2.552,3.345 -4.394,4.394 -1.814,1.048 -3.884,1.615 -5.981,1.615 z"
             style="fill:none;stroke:#3465a4;stroke-width:0.75;stroke-linecap:butt;stroke-linejoin:round;stroke-miterlimit:10;stroke-dasharray:none;stroke-opacity:1"
             id="path904" /></g><g
           id="g906"><text
             transform="matrix(1,0,0,-1,187.909,187.369)"
             style="font-style:italic;font-variant:normal;font-size:14.003px;font-family:'Liberation Sans';-inkscape-font-specification:LiberationSans-Italic;writing-mode:lr-tb;fill:#000000;fill-opacity:1;fill-rule:nonzero;stroke:none"
             id="text910"><tspan
               x="0 7.7856679 11.678502 15.669357 20.360361 23.455025 31.240692 39.02636 43.017216 50.802883"
               y="0"
               sodipodi:role="line"
               id="tspan908">attributes</tspan></text></g><g
           id="g912"
           transform="translate(187.909,187.369)"><path
             d="M 0,-1.191 H 57.997"
             style="fill:none;stroke:#000000;stroke-width:0.794;stroke-linecap:butt;stroke-linejoin:miter;stroke-miterlimit:10;stroke-dasharray:none;stroke-opacity:1"
             id="path914" /></g><g
           id="g916"><text
             transform="matrix(1,0,0,-1,199.389,171.665)"
             style="font-variant:normal;font-weight:normal;font-size:14.003px;font-family:'Liberation Sans';-inkscape-font-specification:LiberationSans;writing-mode:lr-tb;fill:#000000;fill-opacity:1;fill-rule:nonzero;stroke:none"
             id="text920"><tspan
               x="0 7.7856679 15.571336 27.179823"
               y="0"
               sodipodi:role="line"
               id="tspan918">name</tspan></text></g><g
           id="g922"><text
             transform="matrix(1,0,0,-1,176.287,155.848)"
             style="font-variant:normal;font-weight:normal;font-size:14.003px;font-family:'Liberation Sans';-inkscape-font-specification:LiberationSans;writing-mode:lr-tb;fill:#000000;fill-opacity:1;fill-rule:nonzero;stroke:none"
             id="text926"><tspan
               x="0 7.0855179 14.871186 19.478172 27.263842 38.956345 46.742016 53.827534 61.613201 73.221687"
               y="0"
               sodipodi:role="line"
               id="tspan924">chromosome</tspan></text></g><g
           id="g928"><path
             d="m 479.537,212.456 v 0 c -2.098,0 -4.167,-0.567 -5.981,-1.616 -1.843,-1.049 -3.345,-2.551 -4.394,-4.393 -1.049,-1.815 -1.616,-3.884 -1.616,-6.01 v -47.99 -0.029 c 0,-2.097 0.567,-4.167 1.616,-5.981 1.049,-1.842 2.551,-3.345 4.394,-4.394 1.814,-1.048 3.883,-1.615 5.981,-1.615 h 138.019 v 0 c 2.126,0 4.195,0.567 6.009,1.615 1.843,1.049 3.345,2.552 4.394,4.394 1.049,1.814 1.616,3.884 1.616,5.981 v 48.047 -0.028 0 c 0,2.126 -0.567,4.195 -1.616,6.01 -1.049,1.842 -2.551,3.344 -4.394,4.393 -1.814,1.049 -3.883,1.616 -6.009,1.616 z"
             style="fill:none;stroke:#3465a4;stroke-width:0.75;stroke-linecap:butt;stroke-linejoin:round;stroke-miterlimit:10;stroke-dasharray:none;stroke-opacity:1"
             id="path930" /></g><g
           id="g932"><text
             transform="matrix(1,0,0,-1,521.603,179.461)"
             style="font-style:italic;font-variant:normal;font-size:14.003px;font-family:'Liberation Sans';-inkscape-font-specification:LiberationSans-Italic;writing-mode:lr-tb;fill:#000000;fill-opacity:1;fill-rule:nonzero;stroke:none"
             id="text936"><tspan
               x="0 11.608487 19.394156 23.38501 31.170677 38.956345 46.742016"
               y="0"
               sodipodi:role="line"
               id="tspan934">methods</tspan></text></g><g
           id="g938"
           transform="translate(521.603,179.461)"><path
             d="M 0,-1.191 H 53.887"
             style="fill:none;stroke:#000000;stroke-width:0.794;stroke-linecap:butt;stroke-linejoin:miter;stroke-miterlimit:10;stroke-dasharray:none;stroke-opacity:1"
             id="path940" /></g><g
           id="g942"><text
             transform="matrix(1,0,0,-1,513.014,163.757)"
             style="font-variant:normal;font-weight:normal;font-size:14.003px;font-family:'Liberation Sans';-inkscape-font-specification:LiberationSans;writing-mode:lr-tb;fill:#000000;fill-opacity:1;fill-rule:nonzero;stroke:none"
             id="text946"><tspan
               x="0 3.8928339 8.5838394 16.369507 24.155174 31.240692 38.32621 42.933197 46.125881 53.911549 61.69722 66.304207"
               y="0"
               sodipodi:role="line"
               id="tspan944">transcribe()</tspan></text></g><g
           id="g948"><path
             d="M 384.151,270.906 216.907,212.484"
             style="fill:none;stroke:#3465a4;stroke-width:0.75;stroke-linecap:butt;stroke-linejoin:round;stroke-miterlimit:10;stroke-dasharray:none;stroke-opacity:1"
             id="path950" /></g><g
           id="g952"><path
             d="m 384.151,270.906 164.41,-58.45"
             style="fill:none;stroke:#3465a4;stroke-width:0.75;stroke-linecap:butt;stroke-linejoin:round;stroke-miterlimit:10;stroke-dasharray:none;stroke-opacity:1"
             id="path954" /></g><g
           id="g956"><text
             transform="matrix(1,0,0,-1,78.094,173.848)"
             style="font-variant:normal;font-weight:normal;font-size:14.003px;font-family:'Liberation Sans';-inkscape-font-specification:LiberationSans;writing-mode:lr-tb;fill:#000000;fill-opacity:1;fill-rule:nonzero;stroke:none"
             id="text960"><tspan
               x="0 10.096163 17.88183 21.774666"
               y="0"
               sodipodi:role="line"
               id="tspan958">Data</tspan></text></g><g
           id="g962"><text
             transform="matrix(1,0,0,-1,655.087,173.848)"
             style="font-variant:normal;font-weight:normal;font-size:14.003px;font-family:'Liberation Sans';-inkscape-font-specification:LiberationSans;writing-mode:lr-tb;fill:#000000;fill-opacity:1;fill-rule:nonzero;stroke:none"
             id="text966"><tspan
               x="0 9.2979918 17.08366 24.869328 32.654995 39.740513 42.835178 50.620846 58.406513"
               y="0"
               sodipodi:role="line"
               id="tspan964">Behaviour</tspan></text></g><g
           id="g968"><text
             transform="matrix(1,0,0,-1,364.309,358.157)"
             style="font-variant:normal;font-weight:normal;font-size:14.003px;font-family:'Liberation Sans';-inkscape-font-specification:LiberationSans;writing-mode:lr-tb;fill:#000000;fill-opacity:1;fill-rule:nonzero;stroke:none"
             id="text972"><tspan
               x="0 10.096163 13.190826 20.976494 28.062012"
               y="0"
               sodipodi:role="line"
               id="tspan970">Class</tspan></text></g></g></g><rect
       style="opacity:0;fill:#ffffff;fill-opacity:0.957576;stroke:#ff0000;stroke-width:2.83465;stroke-miterlimit:1;stroke-dashoffset:0.642448"
       id="rect1387"
       width="658.45685"
       height="246.64673"
       x="70.379601"
       y="-376.95847"
       transform="scale(1,-1)" /></g></svg>
